<svg xmlns="http://www.w3.org/2000/svg" xmlns:xlink="http://www.w3.org/1999/xlink" width="500" zoomAndPan="magnify" viewBox="0 0 375 374.999991" height="500" preserveAspectRatio="xMidYMid meet" version="1.2"><defs><clipPath id="2216f4c97c"><path d="M 35 11.054688 L 340 11.054688 L 340 363.550781 L 35 363.550781 Z M 35 11.054688 "/></clipPath><clipPath id="ce7021b883"><path d="M 54.660156 34 L 319.960938 34 L 319.960938 340.847656 L 54.660156 340.847656 Z M 54.660156 34 "/></clipPath><clipPath id="3bc03b7dac"><path d="M 76.871094 60.570312 L 298 60.570312 L 298 315.664062 L 76.871094 315.664062 Z M 76.871094 60.570312 "/></clipPath><clipPath id="141b5d2f06"><path d="M 90.617188 75.730469 L 283.5625 75.730469 L 283.5625 298.363281 L 90.617188 298.363281 Z M 90.617188 75.730469 "/></clipPath></defs><g id="182af72d0d"><g clip-rule="nonzero" clip-path="url(#2216f4c97c)"><path style=" stroke:none;fill-rule:nonzero;fill:#1c6876;fill-opacity:1;" d="M 187.523438 11.449219 L 339.992188 99.472656 L 339.992188 275.527344 L 187.523438 363.550781 L 35.058594 275.527344 L 35.058594 99.472656 Z M 187.523438 11.449219 "/></g><g clip-rule="nonzero" clip-path="url(#ce7021b883)"><path style=" stroke:none;fill-rule:nonzero;fill:#0f3b66;fill-opacity:1;" d="M 187.332031 34.585938 L 319.945312 111.152344 L 319.945312 264.28125 L 187.332031 340.847656 L 54.71875 264.28125 L 54.71875 111.152344 Z M 187.332031 34.585938 "/></g><g clip-rule="nonzero" clip-path="url(#3bc03b7dac)"><path style=" stroke:none;fill-rule:nonzero;fill:#d2dadc;fill-opacity:1;" d="M 187.378906 60.570312 L 297.839844 124.34375 L 297.839844 251.890625 L 187.378906 315.664062 L 76.917969 251.890625 L 76.917969 124.34375 Z M 187.378906 60.570312 "/></g><g clip-rule="nonzero" clip-path="url(#141b5d2f06)"><path style=" stroke:none;fill-rule:nonzero;fill:#000000;fill-opacity:1;" d="M 187.058594 75.730469 L 283.460938 131.390625 L 283.460938 242.703125 L 187.058594 298.363281 L 90.660156 242.703125 L 90.660156 131.390625 Z M 187.058594 75.730469 "/></g><g style="fill:#d2dadc;fill-opacity:1;"><g transform="translate(109.629822, 189.749351)"><path style="stroke:none" d="M 11.921875 2.742188 C 9.019531 2.742188 6.328125 2.109375 3.84375 0.847656 C 1.332031 -0.433594 -0.710938 -2.253906 -2.285156 -4.617188 L -3.289062 -6.128906 L 2.707031 -12.945312 L 4.421875 -10.40625 C 5.433594 -8.902344 6.574219 -7.789062 7.839844 -7.070312 C 9.066406 -6.371094 10.445312 -6.023438 11.984375 -6.023438 C 13.984375 -6.023438 15.429688 -6.554688 16.324219 -7.613281 C 17.320312 -8.789062 17.816406 -10.710938 17.816406 -13.371094 L 17.816406 -40.113281 L 20.183594 -40.113281 L 20.183594 -37.746094 L 1.671875 -37.746094 L 1.671875 -46.515625 L 27.152344 -46.515625 L 27.152344 -13.558594 C 27.152344 -8.316406 25.859375 -4.300781 23.273438 -1.511719 C 20.636719 1.324219 16.855469 2.742188 11.921875 2.742188 Z M 11.921875 -1.988281 C 15.480469 -1.988281 18.105469 -2.902344 19.804688 -4.730469 C 21.546875 -6.609375 22.421875 -9.554688 22.421875 -13.558594 L 22.421875 -44.148438 L 24.785156 -44.148438 L 24.785156 -41.78125 L 4.035156 -41.78125 L 4.035156 -44.148438 L 6.402344 -44.148438 L 6.402344 -40.113281 L 4.035156 -40.113281 L 4.035156 -42.476562 L 22.546875 -42.476562 L 22.546875 -13.371094 C 22.546875 -9.554688 21.679688 -6.621094 19.941406 -4.558594 C 18.101562 -2.382812 15.449219 -1.292969 11.984375 -1.292969 C 9.609375 -1.292969 7.449219 -1.847656 5.5 -2.957031 C 3.589844 -4.046875 1.925781 -5.644531 0.5 -7.757812 L 2.460938 -9.082031 L 4.234375 -7.519531 L 1.460938 -4.367188 L -0.316406 -5.929688 L 1.652344 -7.242188 C 2.769531 -5.566406 4.214844 -4.273438 5.992188 -3.367188 C 7.800781 -2.449219 9.777344 -1.988281 11.921875 -1.988281 Z M 11.921875 -1.988281 "/></g></g><g style="fill:#d2dadc;fill-opacity:1;"><g transform="translate(145.766343, 189.749351)"><path style="stroke:none" d="M 18.417969 -27.589844 C 23.613281 -27.304688 27.628906 -25.84375 30.464844 -23.207031 C 33.386719 -20.488281 34.847656 -16.980469 34.847656 -12.675781 C 34.847656 -9.703125 34.117188 -7.046875 32.660156 -4.707031 C 31.195312 -2.359375 29.054688 -0.519531 26.238281 0.8125 C 23.523438 2.101562 20.261719 2.742188 16.460938 2.742188 C 12.988281 2.742188 9.703125 2.179688 6.605469 1.058594 C 3.4375 -0.09375 0.867188 -1.652344 -1.105469 -3.625 L -2.425781 -4.945312 L 2.351562 -12.722656 L 4.472656 -10.542969 C 5.703125 -9.273438 7.378906 -8.230469 9.496094 -7.410156 C 11.660156 -6.570312 13.980469 -6.148438 16.460938 -6.148438 C 19.523438 -6.148438 21.828125 -6.765625 23.375 -8 C 24.757812 -9.101562 25.449219 -10.660156 25.449219 -12.675781 C 25.449219 -14.644531 24.761719 -16.167969 23.386719 -17.25 C 21.839844 -18.46875 19.339844 -19.078125 15.894531 -19.078125 L 10.375 -19.078125 L 10.375 -25.613281 L 23.125 -41.585938 L 24.976562 -40.113281 L 24.976562 -37.746094 L 0.03125 -37.746094 L 0.03125 -46.515625 L 33.144531 -46.515625 L 33.144531 -40.105469 L 20.140625 -23.753906 L 18.289062 -25.226562 Z M 13.589844 -23.113281 L 28.925781 -42.402344 L 30.777344 -40.933594 L 28.414062 -40.933594 L 28.414062 -44.148438 L 30.777344 -44.148438 L 30.777344 -41.78125 L 2.398438 -41.78125 L 2.398438 -44.148438 L 4.761719 -44.148438 L 4.761719 -40.113281 L 2.398438 -40.113281 L 2.398438 -42.476562 L 29.890625 -42.476562 L 14.589844 -23.308594 L 12.738281 -24.785156 L 15.105469 -24.785156 L 15.105469 -21.445312 L 12.738281 -21.445312 L 12.738281 -23.808594 L 15.894531 -23.808594 C 20.433594 -23.808594 23.90625 -22.863281 26.3125 -20.96875 C 28.890625 -18.9375 30.179688 -16.175781 30.179688 -12.675781 C 30.179688 -9.144531 28.894531 -6.351562 26.324219 -4.300781 C 23.917969 -2.378906 20.628906 -1.417969 16.460938 -1.417969 C 13.390625 -1.417969 10.5 -1.945312 7.785156 -2.996094 C 5.027344 -4.066406 2.789062 -5.484375 1.078125 -7.242188 L 2.773438 -8.894531 L 4.789062 -7.65625 L 2.582031 -4.058594 L 0.566406 -5.296875 L 2.238281 -6.96875 C 3.714844 -5.496094 5.707031 -4.300781 8.21875 -3.390625 C 10.796875 -2.453125 13.542969 -1.988281 16.460938 -1.988281 C 19.554688 -1.988281 22.140625 -2.480469 24.214844 -3.460938 C 26.195312 -4.398438 27.671875 -5.648438 28.644531 -7.210938 C 29.625 -8.785156 30.113281 -10.605469 30.113281 -12.675781 C 30.113281 -15.605469 29.15625 -17.960938 27.242188 -19.742188 C 25.242188 -21.605469 22.214844 -22.644531 18.160156 -22.867188 Z M 13.589844 -23.113281 "/></g></g><g style="fill:#d2dadc;fill-opacity:1;"><g transform="translate(185.875886, 189.749351)"><path style="stroke:none" d="M 21.570312 -28.792969 C 24.832031 -28.792969 27.753906 -28.164062 30.328125 -26.914062 C 32.984375 -25.625 35.058594 -23.789062 36.5625 -21.414062 C 38.066406 -19.03125 38.820312 -16.285156 38.820312 -13.179688 C 38.820312 -10.035156 38.046875 -7.238281 36.496094 -4.789062 C 34.953125 -2.351562 32.835938 -0.476562 30.140625 0.835938 C 27.523438 2.105469 24.601562 2.742188 21.378906 2.742188 C 14.785156 2.742188 9.691406 0.527344 6.109375 -3.90625 C 2.644531 -8.1875 0.914062 -14.117188 0.914062 -21.695312 C 0.914062 -26.984375 1.835938 -31.496094 3.679688 -35.230469 C 5.574219 -39.066406 8.242188 -41.976562 11.683594 -43.957031 C 15.078125 -45.914062 19.003906 -46.890625 23.460938 -46.890625 C 28.277344 -46.890625 32.179688 -45.976562 35.167969 -44.148438 L 37.015625 -43.011719 L 33.023438 -35.027344 L 30.800781 -36.496094 C 29.09375 -37.625 26.667969 -38.1875 23.523438 -38.1875 C 19.351562 -38.1875 16.109375 -36.90625 13.804688 -34.335938 C 11.433594 -31.695312 10.25 -27.734375 10.25 -22.453125 C 10.25 -21.476562 10.308594 -20.351562 10.429688 -19.078125 L 8.074219 -18.859375 L 5.921875 -19.839844 C 7.230469 -22.710938 9.3125 -24.933594 12.164062 -26.507812 C 14.917969 -28.03125 18.050781 -28.792969 21.570312 -28.792969 Z M 21.570312 -24.058594 C 18.863281 -24.058594 16.492188 -23.496094 14.453125 -22.367188 C 12.511719 -21.296875 11.101562 -19.796875 10.226562 -17.875 L 6.546875 -9.808594 L 5.71875 -18.636719 C 5.585938 -20.054688 5.519531 -21.328125 5.519531 -22.453125 C 5.519531 -28.941406 7.109375 -33.957031 10.285156 -37.5 C 13.53125 -41.113281 17.945312 -42.917969 23.523438 -42.917969 C 27.613281 -42.917969 30.90625 -42.09375 33.40625 -40.445312 L 32.101562 -38.472656 L 29.988281 -39.53125 L 31.816406 -43.1875 L 33.929688 -42.128906 L 32.695312 -40.113281 C 30.46875 -41.480469 27.390625 -42.160156 23.460938 -42.160156 C 19.847656 -42.160156 16.710938 -41.394531 14.046875 -39.859375 C 11.433594 -38.355469 9.394531 -36.113281 7.921875 -33.136719 C 6.40625 -30.058594 5.644531 -26.246094 5.644531 -21.695312 C 5.644531 -15.230469 7.023438 -10.292969 9.785156 -6.878906 C 12.425781 -3.617188 16.289062 -1.988281 21.378906 -1.988281 C 23.875 -1.988281 26.105469 -2.464844 28.070312 -3.421875 C 29.960938 -4.339844 31.4375 -5.636719 32.5 -7.320312 C 33.558594 -8.992188 34.089844 -10.949219 34.089844 -13.179688 C 34.089844 -15.375 33.578125 -17.277344 32.5625 -18.886719 C 31.539062 -20.503906 30.105469 -21.761719 28.261719 -22.660156 C 26.339844 -23.59375 24.109375 -24.058594 21.570312 -24.058594 Z M 21.191406 -5.835938 C 23.792969 -5.835938 25.871094 -6.511719 27.425781 -7.867188 C 28.882812 -9.140625 29.609375 -10.871094 29.609375 -13.054688 C 29.609375 -15.234375 28.886719 -16.949219 27.433594 -18.203125 C 25.882812 -19.542969 23.695312 -20.214844 20.875 -20.214844 C 19.015625 -20.214844 17.398438 -19.875 16.027344 -19.195312 C 14.707031 -18.546875 13.683594 -17.664062 12.949219 -16.550781 C 12.242188 -15.472656 11.890625 -14.265625 11.890625 -12.929688 C 11.890625 -11.703125 12.21875 -10.570312 12.878906 -9.527344 C 13.546875 -8.46875 14.570312 -7.59375 15.941406 -6.910156 C 17.375 -6.191406 19.125 -5.835938 21.191406 -5.835938 Z M 21.191406 -1.101562 C 18.378906 -1.101562 15.925781 -1.628906 13.828125 -2.675781 C 11.667969 -3.757812 10.019531 -5.195312 8.878906 -6.996094 C 7.730469 -8.8125 7.15625 -10.789062 7.15625 -12.929688 C 7.15625 -15.207031 7.769531 -17.28125 8.996094 -19.148438 C 10.199219 -20.976562 11.84375 -22.40625 13.929688 -23.4375 C 15.964844 -24.441406 18.277344 -24.945312 20.875 -24.945312 C 24.867188 -24.945312 28.085938 -23.890625 30.527344 -21.785156 C 33.070312 -19.585938 34.339844 -16.679688 34.339844 -13.054688 C 34.339844 -9.4375 33.074219 -6.519531 30.535156 -4.304688 C 28.09375 -2.171875 24.980469 -1.101562 21.191406 -1.101562 Z M 21.191406 -1.101562 "/></g></g><g style="fill:#d2dadc;fill-opacity:1;"><g transform="translate(228.823299, 189.749351)"><path style="stroke:none" d="M 14.882812 -28.414062 C 21.820312 -28.414062 26.964844 -27.097656 30.3125 -24.472656 C 33.839844 -21.707031 35.601562 -17.878906 35.601562 -12.992188 C 35.601562 -9.996094 34.894531 -7.300781 33.472656 -4.910156 C 32.03125 -2.484375 29.898438 -0.589844 27.074219 0.773438 C 24.355469 2.085938 21.066406 2.742188 17.21875 2.742188 C 13.785156 2.742188 10.523438 2.179688 7.421875 1.058594 C 4.257812 -0.09375 1.6875 -1.652344 -0.285156 -3.625 L -1.605469 -4.945312 L 3.171875 -12.722656 L 5.289062 -10.542969 C 6.527344 -9.269531 8.183594 -8.226562 10.265625 -7.402344 C 12.382812 -6.566406 14.679688 -6.148438 17.15625 -6.148438 C 20.25 -6.148438 22.574219 -6.789062 24.136719 -8.070312 C 25.558594 -9.238281 26.269531 -10.816406 26.269531 -12.804688 C 26.269531 -13.949219 26.066406 -14.933594 25.667969 -15.75 C 25.285156 -16.527344 24.699219 -17.1875 23.914062 -17.730469 C 22.070312 -19.007812 18.722656 -19.644531 13.875 -19.644531 L 1.859375 -19.644531 L 4.613281 -46.515625 L 33.269531 -46.515625 L 33.269531 -37.746094 L 10.722656 -37.746094 L 10.722656 -40.113281 L 13.074219 -39.859375 L 11.558594 -25.792969 L 9.207031 -26.046875 L 9.207031 -28.414062 Z M 14.882812 -23.683594 L 6.574219 -23.683594 L 8.597656 -42.476562 L 30.902344 -42.476562 L 30.902344 -40.113281 L 28.539062 -40.113281 L 28.539062 -44.148438 L 30.902344 -44.148438 L 30.902344 -41.78125 L 6.75 -41.78125 L 6.75 -44.148438 L 9.101562 -43.90625 L 6.832031 -21.769531 L 4.476562 -22.011719 L 4.476562 -24.375 L 13.875 -24.375 C 19.707031 -24.375 23.949219 -23.457031 26.605469 -21.621094 C 28.066406 -20.613281 29.167969 -19.347656 29.914062 -17.835938 C 30.636719 -16.359375 31 -14.683594 31 -12.804688 C 31 -9.324219 29.710938 -6.527344 27.136719 -4.414062 C 24.707031 -2.417969 21.378906 -1.417969 17.15625 -1.417969 C 14.078125 -1.417969 11.203125 -1.945312 8.527344 -3.003906 C 5.816406 -4.074219 3.605469 -5.488281 1.898438 -7.242188 L 3.59375 -8.894531 L 5.609375 -7.65625 L 3.402344 -4.058594 L 1.386719 -5.296875 L 3.058594 -6.96875 C 4.535156 -5.496094 6.527344 -4.300781 9.039062 -3.390625 C 11.613281 -2.453125 14.339844 -1.988281 17.21875 -1.988281 C 20.347656 -1.988281 22.949219 -2.488281 25.019531 -3.488281 C 26.988281 -4.4375 28.449219 -5.714844 29.40625 -7.324219 C 30.382812 -8.972656 30.871094 -10.859375 30.871094 -12.992188 C 30.871094 -16.34375 29.710938 -18.929688 27.394531 -20.75 C 24.902344 -22.703125 20.730469 -23.683594 14.882812 -23.683594 Z M 14.882812 -23.683594 "/></g></g><g style="fill:#0f3b66;fill-opacity:1;"><g transform="translate(109.629822, 189.749351)"><path style="stroke:none" d="M 11.921875 0.375 C 9.398438 0.375 7.066406 -0.171875 4.921875 -1.265625 C 2.773438 -2.359375 1.03125 -3.910156 -0.3125 -5.921875 L 2.453125 -9.078125 C 4.890625 -5.460938 8.066406 -3.65625 11.984375 -3.65625 C 17.453125 -3.65625 20.1875 -6.894531 20.1875 -13.375 L 20.1875 -40.109375 L 4.03125 -40.109375 L 4.03125 -44.140625 L 24.78125 -44.140625 L 24.78125 -13.5625 C 24.78125 -8.9375 23.695312 -5.457031 21.53125 -3.125 C 19.363281 -0.789062 16.160156 0.375 11.921875 0.375 Z M 11.921875 0.375 "/></g></g><g style="fill:#0f3b66;fill-opacity:1;"><g transform="translate(145.766343, 189.749351)"><path style="stroke:none" d="M 18.28125 -25.21875 C 22.90625 -24.96875 26.425781 -23.71875 28.84375 -21.46875 C 31.269531 -19.21875 32.484375 -16.285156 32.484375 -12.671875 C 32.484375 -10.148438 31.867188 -7.910156 30.640625 -5.953125 C 29.421875 -4.003906 27.613281 -2.460938 25.21875 -1.328125 C 22.820312 -0.191406 19.898438 0.375 16.453125 0.375 C 13.265625 0.375 10.25 -0.140625 7.40625 -1.171875 C 4.570312 -2.203125 2.289062 -3.578125 0.5625 -5.296875 L 2.78125 -8.890625 C 4.25 -7.378906 6.203125 -6.148438 8.640625 -5.203125 C 11.078125 -4.253906 13.679688 -3.78125 16.453125 -3.78125 C 20.066406 -3.78125 22.863281 -4.566406 24.84375 -6.140625 C 26.820312 -7.722656 27.8125 -9.898438 27.8125 -12.671875 C 27.8125 -15.410156 26.820312 -17.554688 24.84375 -19.109375 C 22.863281 -20.660156 19.878906 -21.4375 15.890625 -21.4375 L 12.734375 -21.4375 L 12.734375 -24.78125 L 24.96875 -40.109375 L 2.390625 -40.109375 L 2.390625 -44.140625 L 30.78125 -44.140625 L 30.78125 -40.921875 Z M 18.28125 -25.21875 "/></g></g><g style="fill:#0f3b66;fill-opacity:1;"><g transform="translate(185.875886, 189.749351)"><path style="stroke:none" d="M 21.5625 -26.421875 C 24.46875 -26.421875 27.046875 -25.875 29.296875 -24.78125 C 31.546875 -23.6875 33.300781 -22.140625 34.5625 -20.140625 C 35.820312 -18.148438 36.453125 -15.832031 36.453125 -13.1875 C 36.453125 -10.488281 35.800781 -8.109375 34.5 -6.046875 C 33.195312 -3.992188 31.398438 -2.410156 29.109375 -1.296875 C 26.816406 -0.179688 24.238281 0.375 21.375 0.375 C 15.53125 0.375 11.050781 -1.546875 7.9375 -5.390625 C 4.832031 -9.234375 3.28125 -14.664062 3.28125 -21.6875 C 3.28125 -26.613281 4.117188 -30.773438 5.796875 -34.171875 C 7.484375 -37.578125 9.835938 -40.148438 12.859375 -41.890625 C 15.890625 -43.640625 19.421875 -44.515625 23.453125 -44.515625 C 27.828125 -44.515625 31.316406 -43.71875 33.921875 -42.125 L 32.09375 -38.46875 C 30 -39.851562 27.140625 -40.546875 23.515625 -40.546875 C 18.640625 -40.546875 14.8125 -39 12.03125 -35.90625 C 9.257812 -32.820312 7.875 -28.335938 7.875 -22.453125 C 7.875 -21.398438 7.941406 -20.203125 8.078125 -18.859375 C 9.171875 -21.253906 10.914062 -23.113281 13.3125 -24.4375 C 15.707031 -25.757812 18.457031 -26.421875 21.5625 -26.421875 Z M 21.1875 -3.46875 C 24.382812 -3.46875 26.976562 -4.335938 28.96875 -6.078125 C 30.96875 -7.828125 31.96875 -10.148438 31.96875 -13.046875 C 31.96875 -15.953125 30.96875 -18.265625 28.96875 -19.984375 C 26.976562 -21.710938 24.28125 -22.578125 20.875 -22.578125 C 18.644531 -22.578125 16.675781 -22.15625 14.96875 -21.3125 C 13.269531 -20.46875 11.9375 -19.3125 10.96875 -17.84375 C 10 -16.375 9.515625 -14.734375 9.515625 -12.921875 C 9.515625 -11.242188 9.96875 -9.6875 10.875 -8.25 C 11.78125 -6.820312 13.113281 -5.664062 14.875 -4.78125 C 16.644531 -3.90625 18.75 -3.46875 21.1875 -3.46875 Z M 21.1875 -3.46875 "/></g></g><g style="fill:#0f3b66;fill-opacity:1;"><g transform="translate(228.823299, 189.749351)"><path style="stroke:none" d="M 14.875 -26.046875 C 21.269531 -26.046875 25.925781 -24.898438 28.84375 -22.609375 C 31.769531 -20.316406 33.234375 -17.109375 33.234375 -12.984375 C 33.234375 -10.421875 32.632812 -8.128906 31.4375 -6.109375 C 30.238281 -4.097656 28.441406 -2.515625 26.046875 -1.359375 C 23.648438 -0.203125 20.707031 0.375 17.21875 0.375 C 14.0625 0.375 11.0625 -0.140625 8.21875 -1.171875 C 5.382812 -2.203125 3.109375 -3.578125 1.390625 -5.296875 L 3.59375 -8.890625 C 5.0625 -7.378906 6.992188 -6.148438 9.390625 -5.203125 C 11.785156 -4.253906 14.375 -3.78125 17.15625 -3.78125 C 20.8125 -3.78125 23.632812 -4.597656 25.625 -6.234375 C 27.625 -7.878906 28.625 -10.066406 28.625 -12.796875 C 28.625 -15.828125 27.5 -18.117188 25.25 -19.671875 C 23 -21.234375 19.207031 -22.015625 13.875 -22.015625 L 4.484375 -22.015625 L 6.75 -44.140625 L 30.90625 -44.140625 L 30.90625 -40.109375 L 10.71875 -40.109375 L 9.203125 -26.046875 Z M 14.875 -26.046875 "/></g></g><g style="fill:#d2dadc;fill-opacity:1;"><g transform="translate(97.808887, 229.677747)"><path style="stroke:none" d="M 12.765625 0.421875 C 10.535156 0.421875 8.53125 -0.046875 6.75 -0.984375 C 4.96875 -1.929688 3.566406 -3.25 2.546875 -4.9375 C 1.535156 -6.625 1.03125 -8.53125 1.03125 -10.65625 C 1.03125 -12.789062 1.535156 -14.703125 2.546875 -16.390625 C 3.566406 -18.078125 4.96875 -19.390625 6.75 -20.328125 C 8.53125 -21.273438 10.535156 -21.75 12.765625 -21.75 C 14.710938 -21.75 16.46875 -21.40625 18.03125 -20.71875 C 19.601562 -20.03125 20.90625 -19.035156 21.9375 -17.734375 L 18.09375 -14.265625 C 16.71875 -15.921875 15.046875 -16.75 13.078125 -16.75 C 11.910156 -16.75 10.875 -16.492188 9.96875 -15.984375 C 9.070312 -15.484375 8.375 -14.769531 7.875 -13.84375 C 7.375 -12.925781 7.125 -11.863281 7.125 -10.65625 C 7.125 -9.457031 7.375 -8.394531 7.875 -7.46875 C 8.375 -6.550781 9.070312 -5.835938 9.96875 -5.328125 C 10.875 -4.816406 11.910156 -4.5625 13.078125 -4.5625 C 15.046875 -4.5625 16.71875 -5.394531 18.09375 -7.0625 L 21.9375 -3.59375 C 20.90625 -2.289062 19.601562 -1.296875 18.03125 -0.609375 C 16.46875 0.078125 14.710938 0.421875 12.765625 0.421875 Z M 12.765625 0.421875 "/></g></g><g style="fill:#d2dadc;fill-opacity:1;"><g transform="translate(119.780393, 229.677747)"><path style="stroke:none" d="M 10.140625 0.28125 C 8.378906 0.28125 6.785156 -0.0820312 5.359375 -0.8125 C 3.941406 -1.550781 2.832031 -2.566406 2.03125 -3.859375 C 1.226562 -5.160156 0.828125 -6.632812 0.828125 -8.28125 C 0.828125 -9.90625 1.226562 -11.367188 2.03125 -12.671875 C 2.832031 -13.972656 3.9375 -14.984375 5.34375 -15.703125 C 6.757812 -16.421875 8.359375 -16.78125 10.140625 -16.78125 C 11.929688 -16.78125 13.535156 -16.421875 14.953125 -15.703125 C 16.378906 -14.984375 17.488281 -13.976562 18.28125 -12.6875 C 19.070312 -11.394531 19.46875 -9.925781 19.46875 -8.28125 C 19.46875 -6.632812 19.070312 -5.160156 18.28125 -3.859375 C 17.488281 -2.566406 16.378906 -1.550781 14.953125 -0.8125 C 13.535156 -0.0820312 11.929688 0.28125 10.140625 0.28125 Z M 10.140625 -4.328125 C 11.160156 -4.328125 11.992188 -4.675781 12.640625 -5.375 C 13.296875 -6.070312 13.625 -7.039062 13.625 -8.28125 C 13.625 -9.5 13.296875 -10.453125 12.640625 -11.140625 C 11.992188 -11.835938 11.160156 -12.1875 10.140625 -12.1875 C 9.128906 -12.1875 8.296875 -11.835938 7.640625 -11.140625 C 6.992188 -10.453125 6.671875 -9.5 6.671875 -8.28125 C 6.671875 -7.039062 6.992188 -6.070312 7.640625 -5.375 C 8.296875 -4.675781 9.128906 -4.328125 10.140625 -4.328125 Z M 10.140625 -4.328125 "/></g></g><g style="fill:#d2dadc;fill-opacity:1;"><g transform="translate(140.07587, 229.677747)"><path style="stroke:none" d="M 12.609375 -16.78125 C 14.660156 -16.78125 16.3125 -16.171875 17.5625 -14.953125 C 18.8125 -13.734375 19.4375 -11.894531 19.4375 -9.4375 L 19.4375 0 L 13.65625 0 L 13.65625 -8.5 C 13.65625 -10.75 12.75 -11.875 10.9375 -11.875 C 9.9375 -11.875 9.132812 -11.550781 8.53125 -10.90625 C 7.9375 -10.257812 7.640625 -9.285156 7.640625 -7.984375 L 7.640625 0 L 1.859375 0 L 1.859375 -16.515625 L 7.375 -16.515625 L 7.375 -14.71875 C 8.019531 -15.382812 8.789062 -15.894531 9.6875 -16.25 C 10.582031 -16.601562 11.554688 -16.78125 12.609375 -16.78125 Z M 12.609375 -16.78125 "/></g></g><g style="fill:#d2dadc;fill-opacity:1;"><g transform="translate(161.285568, 229.677747)"><path style="stroke:none" d="M 7.859375 0.28125 C 6.472656 0.28125 5.109375 0.125 3.765625 -0.1875 C 2.429688 -0.507812 1.359375 -0.925781 0.546875 -1.4375 L 2.28125 -5.390625 C 3.03125 -4.921875 3.921875 -4.550781 4.953125 -4.28125 C 5.992188 -4.007812 7.023438 -3.875 8.046875 -3.875 C 8.972656 -3.875 9.632812 -3.96875 10.03125 -4.15625 C 10.4375 -4.351562 10.640625 -4.632812 10.640625 -5 C 10.640625 -5.363281 10.398438 -5.617188 9.921875 -5.765625 C 9.441406 -5.921875 8.679688 -6.070312 7.640625 -6.21875 C 6.328125 -6.375 5.207031 -6.582031 4.28125 -6.84375 C 3.351562 -7.113281 2.554688 -7.601562 1.890625 -8.3125 C 1.222656 -9.03125 0.890625 -10.023438 0.890625 -11.296875 C 0.890625 -12.359375 1.203125 -13.300781 1.828125 -14.125 C 2.453125 -14.945312 3.367188 -15.59375 4.578125 -16.0625 C 5.785156 -16.539062 7.234375 -16.78125 8.921875 -16.78125 C 10.117188 -16.78125 11.304688 -16.660156 12.484375 -16.421875 C 13.671875 -16.179688 14.660156 -15.835938 15.453125 -15.390625 L 13.703125 -11.453125 C 12.242188 -12.265625 10.660156 -12.671875 8.953125 -12.671875 C 8.046875 -12.671875 7.378906 -12.5625 6.953125 -12.34375 C 6.523438 -12.132812 6.3125 -11.859375 6.3125 -11.515625 C 6.3125 -11.128906 6.539062 -10.859375 7 -10.703125 C 7.46875 -10.554688 8.242188 -10.398438 9.328125 -10.234375 C 10.679688 -10.035156 11.804688 -9.800781 12.703125 -9.53125 C 13.597656 -9.269531 14.375 -8.785156 15.03125 -8.078125 C 15.695312 -7.378906 16.03125 -6.40625 16.03125 -5.15625 C 16.03125 -4.113281 15.710938 -3.179688 15.078125 -2.359375 C 14.453125 -1.535156 13.523438 -0.890625 12.296875 -0.421875 C 11.066406 0.046875 9.585938 0.28125 7.859375 0.28125 Z M 7.859375 0.28125 "/></g></g><g style="fill:#d2dadc;fill-opacity:1;"><g transform="translate(177.954686, 229.677747)"><path style="stroke:none" d="M 19.21875 -16.515625 L 19.21875 0 L 13.703125 0 L 13.703125 -1.765625 C 13.097656 -1.097656 12.367188 -0.585938 11.515625 -0.234375 C 10.660156 0.109375 9.757812 0.28125 8.8125 0.28125 C 6.675781 0.28125 4.972656 -0.347656 3.703125 -1.609375 C 2.429688 -2.867188 1.796875 -4.757812 1.796875 -7.28125 L 1.796875 -16.515625 L 7.59375 -16.515625 L 7.59375 -8.21875 C 7.59375 -6.988281 7.820312 -6.085938 8.28125 -5.515625 C 8.75 -4.941406 9.429688 -4.65625 10.328125 -4.65625 C 11.242188 -4.65625 11.988281 -4.972656 12.5625 -5.609375 C 13.144531 -6.253906 13.4375 -7.238281 13.4375 -8.5625 L 13.4375 -16.515625 Z M 19.21875 -16.515625 "/></g></g><g style="fill:#d2dadc;fill-opacity:1;"><g transform="translate(199.042476, 229.677747)"><path style="stroke:none" d="M 1.859375 -22.609375 L 7.640625 -22.609375 L 7.640625 0 L 1.859375 0 Z M 1.859375 -22.609375 "/></g></g><g style="fill:#d2dadc;fill-opacity:1;"><g transform="translate(210.22643, 229.677747)"><path style="stroke:none" d="M 13.25 -0.671875 C 12.757812 -0.367188 12.164062 -0.132812 11.46875 0.03125 C 10.769531 0.195312 10.023438 0.28125 9.234375 0.28125 C 7.078125 0.28125 5.421875 -0.242188 4.265625 -1.296875 C 3.109375 -2.359375 2.53125 -3.9375 2.53125 -6.03125 L 2.53125 -11.578125 L 0.125 -11.578125 L 0.125 -15.90625 L 2.53125 -15.90625 L 2.53125 -20.203125 L 8.3125 -20.203125 L 8.3125 -15.90625 L 12.09375 -15.90625 L 12.09375 -11.578125 L 8.3125 -11.578125 L 8.3125 -6.09375 C 8.3125 -5.5 8.46875 -5.035156 8.78125 -4.703125 C 9.101562 -4.367188 9.523438 -4.203125 10.046875 -4.203125 C 10.722656 -4.203125 11.316406 -4.375 11.828125 -4.71875 Z M 13.25 -0.671875 "/></g></g><g style="fill:#d2dadc;fill-opacity:1;"><g transform="translate(223.848173, 229.677747)"><path style="stroke:none" d="M 1.859375 -16.515625 L 7.640625 -16.515625 L 7.640625 0 L 1.859375 0 Z M 4.75 -18.34375 C 3.695312 -18.34375 2.84375 -18.632812 2.1875 -19.21875 C 1.539062 -19.8125 1.21875 -20.546875 1.21875 -21.421875 C 1.21875 -22.296875 1.539062 -23.023438 2.1875 -23.609375 C 2.84375 -24.203125 3.695312 -24.5 4.75 -24.5 C 5.800781 -24.5 6.648438 -24.21875 7.296875 -23.65625 C 7.953125 -23.101562 8.28125 -22.390625 8.28125 -21.515625 C 8.28125 -20.597656 7.953125 -19.835938 7.296875 -19.234375 C 6.648438 -18.640625 5.800781 -18.34375 4.75 -18.34375 Z M 4.75 -18.34375 "/></g></g><g style="fill:#d2dadc;fill-opacity:1;"><g transform="translate(233.386445, 229.677747)"><path style="stroke:none" d="M 12.609375 -16.78125 C 14.660156 -16.78125 16.3125 -16.171875 17.5625 -14.953125 C 18.8125 -13.734375 19.4375 -11.894531 19.4375 -9.4375 L 19.4375 0 L 13.65625 0 L 13.65625 -8.5 C 13.65625 -10.75 12.75 -11.875 10.9375 -11.875 C 9.9375 -11.875 9.132812 -11.550781 8.53125 -10.90625 C 7.9375 -10.257812 7.640625 -9.285156 7.640625 -7.984375 L 7.640625 0 L 1.859375 0 L 1.859375 -16.515625 L 7.375 -16.515625 L 7.375 -14.71875 C 8.019531 -15.382812 8.789062 -15.894531 9.6875 -16.25 C 10.582031 -16.601562 11.554688 -16.78125 12.609375 -16.78125 Z M 12.609375 -16.78125 "/></g></g><g style="fill:#d2dadc;fill-opacity:1;"><g transform="translate(254.839943, 229.677747)"><path style="stroke:none" d="M 19.625 -16.515625 L 19.625 -3.015625 C 19.625 0.046875 18.789062 2.34375 17.125 3.875 C 15.457031 5.414062 13.0625 6.1875 9.9375 6.1875 C 8.3125 6.1875 6.785156 6.003906 5.359375 5.640625 C 3.941406 5.273438 2.734375 4.734375 1.734375 4.015625 L 3.84375 -0.03125 C 4.507812 0.519531 5.351562 0.953125 6.375 1.265625 C 7.40625 1.578125 8.421875 1.734375 9.421875 1.734375 C 10.941406 1.734375 12.054688 1.394531 12.765625 0.71875 C 13.472656 0.0507812 13.828125 -0.9375 13.828125 -2.25 L 13.828125 -2.796875 C 12.710938 -1.503906 11.078125 -0.859375 8.921875 -0.859375 C 7.460938 -0.859375 6.113281 -1.1875 4.875 -1.84375 C 3.632812 -2.5 2.648438 -3.429688 1.921875 -4.640625 C 1.191406 -5.847656 0.828125 -7.242188 0.828125 -8.828125 C 0.828125 -10.398438 1.191406 -11.789062 1.921875 -13 C 2.648438 -14.207031 3.632812 -15.140625 4.875 -15.796875 C 6.113281 -16.453125 7.460938 -16.78125 8.921875 -16.78125 C 11.285156 -16.78125 13.015625 -16.019531 14.109375 -14.5 L 14.109375 -16.515625 Z M 10.296875 -5.453125 C 11.335938 -5.453125 12.195312 -5.765625 12.875 -6.390625 C 13.550781 -7.023438 13.890625 -7.835938 13.890625 -8.828125 C 13.890625 -9.828125 13.550781 -10.632812 12.875 -11.25 C 12.207031 -11.875 11.347656 -12.1875 10.296875 -12.1875 C 9.242188 -12.1875 8.375 -11.875 7.6875 -11.25 C 7.007812 -10.632812 6.671875 -9.828125 6.671875 -8.828125 C 6.671875 -7.835938 7.015625 -7.023438 7.703125 -6.390625 C 8.398438 -5.765625 9.265625 -5.453125 10.296875 -5.453125 Z M 10.296875 -5.453125 "/></g></g></g></svg>